<svg xmlns="http://www.w3.org/2000/svg" width="40" height="40" viewBox="0 0 40 40" fill="none">
<circle cx="20.0" cy="20.0" r="16.9706" fill="#2355C8"/>
<g transform="translate(8.0000,8.0000)" stroke="#FFFFFF" stroke-width="1.5" fill="none" stroke-linecap="round" stroke-linejoin="round">
<path d="M5 12V18C5 18 5 21 12 21C19 21 19 18 19 18V12" stroke="#FFFFFF" stroke-width="1.5"/>
<path d="M5 6V12C5 12 5 15 12 15C19 15 19 12 19 12V6" stroke="#FFFFFF" stroke-width="1.5"/>
<path d="M12 3C19 3 19 6 19 6C19 6 19 9 12 9C5 9 5 6 5 6C5 6 5 3 12 3Z" stroke="#FFFFFF" stroke-width="1.5"/>
</g>
</svg>