<svg xmlns="http://www.w3.org/2000/svg" width="40" height="40" viewBox="0 0 40 40" fill="none">
<circle cx="20.0" cy="20.0" r="16.9706" fill="#2355C8"/>
<g transform="translate(8.0000,8.0000)" stroke="#FFFFFF" stroke-width="1.5" fill="none" stroke-linecap="round" stroke-linejoin="round">

  <path d="M12 7 C12 7 10.5 5.5 8.5 6 C6.5 6.5 5 8.5 5 11.5 C5 15 7.5 20 9.8 20 C11 20 11.2 19.3 12 19.3 C12.8 19.3 13 20 14.2 20 C16.5 20 19 15 19 11.5 C19 8.5 17.5 6.5 15.5 6 C13.5 5.5 12 7 12 7 Z"/>
  <path d="M12 7 C12 5 13 3.5 15 3.5 C15 5.5 13.5 7 12 7 Z"/>
  <path d="M12 7 V6"/>

</g>
</svg>