<svg xmlns="http://www.w3.org/2000/svg" width="40" height="40" viewBox="0 0 40 40" fill="none">
<circle cx="20.0" cy="20.0" r="16.9706" fill="#2355C8"/>
<g transform="translate(8.0000,8.0000)" stroke="#FFFFFF" stroke-width="1.5" fill="none" stroke-linecap="round" stroke-linejoin="round">

  <path d="M12 3 V19"/>
  <path d="M7 19 H17"/>
  <path d="M6 7 L12 5.5 L18 7"/>
  <path d="M6 7 L4 12 H8 L6 7 Z"/>
  <path d="M18 7 L16 12 H20 L18 7 Z"/>
  <path d="M4 12 C4 13.4 5.2 14 6 14 C6.8 14 8 13.4 8 12"/>
  <path d="M16 12 C16 13.4 17.2 14 18 14 C18.8 14 20 13.4 20 12"/>

</g>
</svg>