<svg xmlns="http://www.w3.org/2000/svg" width="40" height="40" viewBox="0 0 40 40" fill="none">
<circle cx="20.0" cy="20.0" r="16.9706" fill="#2355C8"/>
<g transform="translate(8.0000,8.0000)" stroke="#FFFFFF" stroke-width="1.5" fill="none" stroke-linecap="round" stroke-linejoin="round">
<path d="M6 20.5C7 11 11.5 8 20 6" stroke="#FFFFFF" stroke-linecap="round" stroke-linejoin="round"/>
<path d="M15.9086 3.80941L20.3946 5.90126L18.3028 10.3873" stroke="#FFFFFF" stroke-linecap="round" stroke-linejoin="round"/>
<path d="M5 7C6.10457 7 7 6.10457 7 5C7 3.89543 6.10457 3 5 3C3.89543 3 3 3.89543 3 5C3 6.10457 3.89543 7 5 7Z" stroke="#FFFFFF" stroke-linecap="round" stroke-linejoin="round"/>
<path d="M16 20.2426L18.1213 18.1213M18.1213 18.1213L20.2426 16M18.1213 18.1213L16 16M18.1213 18.1213L20.2426 20.2426" stroke="#FFFFFF" stroke-linecap="round" stroke-linejoin="round"/>
</g>
</svg>