<svg xmlns="http://www.w3.org/2000/svg" width="40" height="40" viewBox="0 0 40 40" fill="none">
<circle cx="20.0" cy="20.0" r="16.9706" fill="#2355C8"/>
<g transform="translate(8.0000,8.0000)" stroke="#FFFFFF" stroke-width="1.5" fill="none" stroke-linecap="round" stroke-linejoin="round">
<path d="M21 2L20 3" stroke="#FFFFFF" stroke-linecap="round" stroke-linejoin="round"/>
<path d="M3 2L4 3" stroke="#FFFFFF" stroke-linecap="round" stroke-linejoin="round"/>
<path d="M21 16L20 15" stroke="#FFFFFF" stroke-linecap="round" stroke-linejoin="round"/>
<path d="M3 16L4 15" stroke="#FFFFFF" stroke-linecap="round" stroke-linejoin="round"/>
<path d="M9 18H15" stroke="#FFFFFF" stroke-linecap="round" stroke-linejoin="round"/>
<path d="M10 21H14" stroke="#FFFFFF" stroke-linecap="round" stroke-linejoin="round"/>
<path d="M11.9998 3C7.9997 3 5.95186 4.95029 5.99985 8C6.02324 9.48689 6.4997 10.5 7.49985 11.5C8.5 12.5 9 13 8.99985 15H14.9998C15 13.0001 15.5 12.5 16.4997 11.5001L16.4998 11.5C17.4997 10.5 17.9765 9.48689 17.9998 8C18.0478 4.95029 16 3 11.9998 3Z" stroke="#FFFFFF" stroke-linecap="round" stroke-linejoin="round"/>
</g>
</svg>