<svg xmlns="http://www.w3.org/2000/svg" width="40" height="40" viewBox="0 0 40 40" fill="none">
<circle cx="20.0" cy="20.0" r="16.9706" fill="#2355C8"/>
<g transform="translate(8.0000,8.0000)" stroke="#FFFFFF" stroke-width="1.5" fill="none" stroke-linecap="round" stroke-linejoin="round">
<path d="M1 20V19C1 15.134 4.13401 12 8 12V12C11.866 12 15 15.134 15 19V20" stroke="#FFFFFF" stroke-linecap="round"/>
<path d="M13 14V14C13 11.2386 15.2386 9 18 9V9C20.7614 9 23 11.2386 23 14V14.5" stroke="#FFFFFF" stroke-linecap="round"/>
<path d="M8 12C10.2091 12 12 10.2091 12 8C12 5.79086 10.2091 4 8 4C5.79086 4 4 5.79086 4 8C4 10.2091 5.79086 12 8 12Z" stroke="#FFFFFF" stroke-linecap="round" stroke-linejoin="round"/>
<path d="M18 9C19.6569 9 21 7.65685 21 6C21 4.34315 19.6569 3 18 3C16.3431 3 15 4.34315 15 6C15 7.65685 16.3431 9 18 9Z" stroke="#FFFFFF" stroke-linecap="round" stroke-linejoin="round"/>
</g>
</svg>