<svg xmlns="http://www.w3.org/2000/svg" width="40" height="40" viewBox="0 0 40 40" fill="none">
<circle cx="20.0" cy="20.0" r="16.9706" fill="#2355C8"/>
<g transform="translate(8.0000,8.0000)" stroke="#FFFFFF" stroke-width="1.5" fill="none" stroke-linecap="round" stroke-linejoin="round">
<path d="M12 18C15.3137 18 18 15.3137 18 12C18 8.68629 15.3137 6 12 6C8.68629 6 6 8.68629 6 12C6 15.3137 8.68629 18 12 18Z" stroke="#FFFFFF" stroke-linecap="round" stroke-linejoin="round"/>
<path d="M22 12L23 12" stroke="#FFFFFF" stroke-linecap="round" stroke-linejoin="round"/>
<path d="M12 2V1" stroke="#FFFFFF" stroke-linecap="round" stroke-linejoin="round"/>
<path d="M12 23V22" stroke="#FFFFFF" stroke-linecap="round" stroke-linejoin="round"/>
<path d="M20 20L19 19" stroke="#FFFFFF" stroke-linecap="round" stroke-linejoin="round"/>
<path d="M20 4L19 5" stroke="#FFFFFF" stroke-linecap="round" stroke-linejoin="round"/>
<path d="M4 20L5 19" stroke="#FFFFFF" stroke-linecap="round" stroke-linejoin="round"/>
<path d="M4 4L5 5" stroke="#FFFFFF" stroke-linecap="round" stroke-linejoin="round"/>
<path d="M1 12L2 12" stroke="#FFFFFF" stroke-linecap="round" stroke-linejoin="round"/>
</g>
</svg>