<svg xmlns="http://www.w3.org/2000/svg" width="40" height="40" viewBox="0 0 40 40" fill="none">
<circle cx="20.0" cy="20.0" r="16.9706" fill="#FFFFFF"/>
<g transform="translate(8.0000,8.0000)" stroke="#2355C8" stroke-width="1.5" fill="none" stroke-linecap="round" stroke-linejoin="round">

  <path d="M7.5 8 L9.8 4.2 C10.3 3.4 11.4 3.4 11.9 4.2 L13.5 7"/>
  <path d="M13.5 7 L13.7 4.6 M13.5 7 L11.2 6.6"/>
  <path d="M15.5 9 L17.9 13 C18.4 13.8 17.9 14.8 17 14.8 L14 14.8"/>
  <path d="M14 14.8 L15.9 13.4 M14 14.8 L15.4 16.7"/>
  <path d="M9.5 14.8 L6.5 14.8 C5.6 14.8 5.1 13.8 5.6 13 L7 10.5"/>
  <path d="M7 10.5 L4.9 11.3 M7 10.5 L8.7 12.2"/>

</g>
</svg>