<svg xmlns="http://www.w3.org/2000/svg" width="40" height="40" viewBox="0 0 40 40" fill="none">
<circle cx="20.0" cy="20.0" r="16.9706" fill="#FFFFFF"/>
<g transform="translate(8.0000,8.0000)" stroke="#2355C8" stroke-width="1.5" fill="none" stroke-linecap="round" stroke-linejoin="round">
<path d="M12 22C17.5228 22 22 17.5228 22 12C22 6.47715 17.5228 2 12 2C6.47715 2 2 6.47715 2 12C2 17.5228 6.47715 22 12 22Z" stroke="#2355C8"   stroke-linecap="round" stroke-linejoin="round"/>
<path d="M2.5 12.5L8 14.5L7 18L8 21" stroke="#2355C8"   stroke-linecap="round" stroke-linejoin="round"/>
<path d="M17 20.5L16.5 18L14 17V13.5L17 12.5L21.5 13" stroke="#2355C8"   stroke-linecap="round" stroke-linejoin="round"/>
<path d="M19 5.5L18.5 7L15 7.5V10.5L17.5 9.5H19.5L21.5 10.5" stroke="#2355C8"   stroke-linecap="round" stroke-linejoin="round"/>
<path d="M2.5 10.5L5 8.5L7.5 8L9.5 5L8.5 3" stroke="#2355C8"   stroke-linecap="round" stroke-linejoin="round"/>
</g>
</svg>