<svg xmlns="http://www.w3.org/2000/svg" width="40" height="40" viewBox="0 0 40 40" fill="none">
<circle cx="20.0" cy="20.0" r="16.9706" fill="#2355C8"/>
<g transform="translate(8.0000,8.0000)" stroke="#FFFFFF" stroke-width="1.5" fill="none" stroke-linecap="round" stroke-linejoin="round">
<path d="M12 22C17.5228 22 22 17.5228 22 12C22 6.47715 17.5228 2 12 2C6.47715 2 2 6.47715 2 12C2 17.5228 6.47715 22 12 22Z" stroke="#FFFFFF" stroke-linecap="round" stroke-linejoin="round"/>
<path d="M7 9L12 10M17 9L12 10M12 10V13M12 13L10 18M12 13L14 18" stroke="#FFFFFF" stroke-linecap="round" stroke-linejoin="round"/>
<path d="M12 7C11.7239 7 11.5 6.77614 11.5 6.5C11.5 6.22386 11.7239 6 12 6C12.2761 6 12.5 6.22386 12.5 6.5C12.5 6.77614 12.2761 7 12 7Z" fill="currentColor" stroke="#FFFFFF" stroke-linecap="round" stroke-linejoin="round"/>
</g>
</svg>