<svg xmlns="http://www.w3.org/2000/svg" width="40" height="40" viewBox="0 0 40 40" fill="none">
<circle cx="20.0" cy="20.0" r="16.9706" fill="#2355C8"/>
<g transform="translate(8.0000,8.0000)" stroke="#FFFFFF" stroke-width="1.5" fill="none" stroke-linecap="round" stroke-linejoin="round">

  <path d="M12 4 C11 2.9 9 3.6 9 5.4 C9 7.4 12 9.5 12 9.5 C12 9.5 15 7.4 15 5.4 C15 3.6 13 2.9 12 4 Z"/>
  <path d="M4 16.5 C4 16.5 5.5 13 8 13.5 L12 14.5 C13 14.7 13 16 12 16 H9.5"/>
  <path d="M4 16.5 C4 16.5 6 20 12 20 C16 20 18.5 18 20 16.5"/>
  <path d="M20 16.5 C20.5 15.8 20.5 14.5 19.5 14.5 C18.5 14.5 17 15.5 15 15.5"/>

</g>
</svg>