<svg xmlns="http://www.w3.org/2000/svg" width="40" height="40" viewBox="0 0 40 40" fill="none">
<circle cx="20.0" cy="20.0" r="16.9706" fill="#FFFFFF"/>
<g transform="translate(8.0000,8.0000)" stroke="#2355C8" stroke-width="1.5" fill="none" stroke-linecap="round" stroke-linejoin="round">

  <path d="M12 5 C11 3.9 9 4.6 9 6.4 C9 8.4 12 10.5 12 10.5 C12 10.5 15 8.4 15 6.4 C15 4.6 13 3.9 12 5 Z"/>
  <path d="M11 13.5 L7.5 12.2 C6.3 11.7 4.8 12.3 4.3 13.7 L3 17.3 L5.5 18.8"/>
  <path d="M4.3 13.7 C4.3 13.7 6 13.5 7 14.5"/>
  <path d="M13 13.5 L16.5 12.2 C17.7 11.7 19.2 12.3 19.7 13.7 L21 17.3 L18.5 18.8"/>
  <path d="M19.7 13.7 C19.7 13.7 18 13.5 17 14.5"/>

</g>
</svg>