<svg xmlns="http://www.w3.org/2000/svg" width="40" height="40" viewBox="0 0 40 40" fill="none">
<circle cx="20.0" cy="20.0" r="16.9706" fill="#2355C8"/>
<g transform="translate(8.0000,8.0000)" stroke="#FFFFFF" stroke-width="1.5" fill="none" stroke-linecap="round" stroke-linejoin="round">
<path d="M4 6V12C4 12 4 15 11 15C18 15 18 12 18 12V6" stroke="#FFFFFF" stroke-linecap="round" stroke-linejoin="round"/>
<path d="M11 3C18 3 18 6 18 6C18 6 18 9 11 9C4 9 4 6 4 6C4 6 4 3 11 3Z" stroke="#FFFFFF" stroke-linecap="round" stroke-linejoin="round"/>
<path d="M11 21C4 21 4 18 4 18V12" stroke="#FFFFFF" stroke-linecap="round" stroke-linejoin="round"/>
<path d="M15 21V19" stroke="#FFFFFF" stroke-linecap="round"/>
<path d="M18 21V17" stroke="#FFFFFF" stroke-linecap="round"/>
<path d="M21 21V15" stroke="#FFFFFF" stroke-linecap="round"/>
</g>
</svg>