<svg xmlns="http://www.w3.org/2000/svg" width="40" height="40" viewBox="0 0 40 40" fill="none">
<circle cx="20.0" cy="20.0" r="16.9706" fill="#FFFFFF"/>
<g transform="translate(8.0000,8.0000)" stroke="#2355C8" stroke-width="1.5" fill="none" stroke-linecap="round" stroke-linejoin="round">
<path d="M1 21V3C1 1.89543 1.89543 1 3 1H21C22.1046 1 23 1.89543 23 3V21C23 22.1046 22.1046 23 21 23H3C1.89543 23 1 22.1046 1 21Z" stroke="#2355C8" stroke-width="1.5"/>
<path d="M15 7L17 7H19" stroke="#2355C8" stroke-linecap="round" stroke-linejoin="round"/>
<path d="M15 15.5H17L19 15.5" stroke="#2355C8" stroke-linecap="round" stroke-linejoin="round"/>
<path d="M15 18.5H17H19" stroke="#2355C8" stroke-linecap="round" stroke-linejoin="round"/>
<path d="M5 7H7M9 7H7M7 7V5M7 7V9" stroke="#2355C8" stroke-linecap="round" stroke-linejoin="round"/>
<path d="M5.58609 18.4142L7.0003 17M8.41452 15.5858L7.0003 17M7.0003 17L5.58609 15.5858M7.0003 17L8.41452 18.4142" stroke="#2355C8" stroke-linecap="round" stroke-linejoin="round"/>
</g>
</svg>